<mxfile host="app.diagrams.net" modified="2020-09-02T13:41:29.964Z" agent="5.0 (Windows NT 10.0; Win64; x64) AppleWebKit/537.36 (KHTML, like Gecko) Chrome/84.0.4147.105 Safari/537.36 OPR/70.0.3728.106" etag="3IVdHwBXjXHssepG9e7B" version="13.6.6" type="github">
  <diagram id="C5RBs43oDa-KdzZeNtuy" name="Page-1">
    <mxGraphModel dx="1974" dy="1136" grid="1" gridSize="10" guides="1" tooltips="1" connect="1" arrows="1" fold="1" page="1" pageScale="1" pageWidth="827" pageHeight="1169" math="0" shadow="0">
      <root>
        <mxCell id="WIyWlLk6GJQsqaUBKTNV-0" />
        <mxCell id="WIyWlLk6GJQsqaUBKTNV-1" parent="WIyWlLk6GJQsqaUBKTNV-0" />
        <mxCell id="zu7qVDjdmiL0SXpGUz2i-52" style="edgeStyle=orthogonalEdgeStyle;rounded=0;orthogonalLoop=1;jettySize=auto;html=1;endArrow=none;endFill=0;strokeColor=#000000;" edge="1" parent="WIyWlLk6GJQsqaUBKTNV-1" source="zu7qVDjdmiL0SXpGUz2i-1" target="zu7qVDjdmiL0SXpGUz2i-44">
          <mxGeometry relative="1" as="geometry" />
        </mxCell>
        <mxCell id="zu7qVDjdmiL0SXpGUz2i-80" style="edgeStyle=orthogonalEdgeStyle;rounded=0;orthogonalLoop=1;jettySize=auto;html=1;exitX=0.75;exitY=1;exitDx=0;exitDy=0;startArrow=block;startFill=1;endArrow=none;endFill=0;strokeColor=#000000;" edge="1" parent="WIyWlLk6GJQsqaUBKTNV-1" source="zu7qVDjdmiL0SXpGUz2i-1">
          <mxGeometry relative="1" as="geometry">
            <mxPoint x="800" y="480" as="targetPoint" />
          </mxGeometry>
        </mxCell>
        <mxCell id="zu7qVDjdmiL0SXpGUz2i-1" value="Movie" style="rounded=0;whiteSpace=wrap;html=1;" vertex="1" parent="WIyWlLk6GJQsqaUBKTNV-1">
          <mxGeometry x="690" y="170" width="120" height="60" as="geometry" />
        </mxCell>
        <mxCell id="zu7qVDjdmiL0SXpGUz2i-36" style="edgeStyle=orthogonalEdgeStyle;rounded=0;orthogonalLoop=1;jettySize=auto;html=1;endArrow=none;endFill=0;strokeColor=#000000;" edge="1" parent="WIyWlLk6GJQsqaUBKTNV-1" source="zu7qVDjdmiL0SXpGUz2i-2" target="zu7qVDjdmiL0SXpGUz2i-1">
          <mxGeometry relative="1" as="geometry" />
        </mxCell>
        <mxCell id="zu7qVDjdmiL0SXpGUz2i-2" value="Genre" style="ellipse;whiteSpace=wrap;html=1;" vertex="1" parent="WIyWlLk6GJQsqaUBKTNV-1">
          <mxGeometry x="690" y="20" width="120" height="80" as="geometry" />
        </mxCell>
        <mxCell id="zu7qVDjdmiL0SXpGUz2i-34" style="edgeStyle=orthogonalEdgeStyle;rounded=0;orthogonalLoop=1;jettySize=auto;html=1;entryX=0;entryY=0.25;entryDx=0;entryDy=0;endArrow=none;endFill=0;strokeColor=#000000;" edge="1" parent="WIyWlLk6GJQsqaUBKTNV-1" source="zu7qVDjdmiL0SXpGUz2i-4" target="zu7qVDjdmiL0SXpGUz2i-1">
          <mxGeometry relative="1" as="geometry" />
        </mxCell>
        <mxCell id="zu7qVDjdmiL0SXpGUz2i-4" value="Year" style="ellipse;whiteSpace=wrap;html=1;" vertex="1" parent="WIyWlLk6GJQsqaUBKTNV-1">
          <mxGeometry x="490" y="110" width="120" height="80" as="geometry" />
        </mxCell>
        <mxCell id="zu7qVDjdmiL0SXpGUz2i-35" style="edgeStyle=orthogonalEdgeStyle;rounded=0;orthogonalLoop=1;jettySize=auto;html=1;entryX=0;entryY=0;entryDx=0;entryDy=0;endArrow=none;endFill=0;strokeColor=#000000;" edge="1" parent="WIyWlLk6GJQsqaUBKTNV-1" source="zu7qVDjdmiL0SXpGUz2i-7" target="zu7qVDjdmiL0SXpGUz2i-1">
          <mxGeometry relative="1" as="geometry">
            <Array as="points">
              <mxPoint x="690" y="100" />
            </Array>
          </mxGeometry>
        </mxCell>
        <mxCell id="zu7qVDjdmiL0SXpGUz2i-7" value="Title" style="ellipse;whiteSpace=wrap;html=1;" vertex="1" parent="WIyWlLk6GJQsqaUBKTNV-1">
          <mxGeometry x="530" y="20" width="120" height="80" as="geometry" />
        </mxCell>
        <mxCell id="zu7qVDjdmiL0SXpGUz2i-33" style="edgeStyle=orthogonalEdgeStyle;rounded=0;orthogonalLoop=1;jettySize=auto;html=1;entryX=0;entryY=0.75;entryDx=0;entryDy=0;endArrow=none;endFill=0;strokeColor=#000000;" edge="1" parent="WIyWlLk6GJQsqaUBKTNV-1" source="zu7qVDjdmiL0SXpGUz2i-14" target="zu7qVDjdmiL0SXpGUz2i-1">
          <mxGeometry relative="1" as="geometry" />
        </mxCell>
        <mxCell id="zu7qVDjdmiL0SXpGUz2i-14" value="Country" style="ellipse;whiteSpace=wrap;html=1;" vertex="1" parent="WIyWlLk6GJQsqaUBKTNV-1">
          <mxGeometry x="520" y="260" width="120" height="80" as="geometry" />
        </mxCell>
        <mxCell id="zu7qVDjdmiL0SXpGUz2i-50" style="edgeStyle=orthogonalEdgeStyle;rounded=0;orthogonalLoop=1;jettySize=auto;html=1;entryX=0;entryY=0.5;entryDx=0;entryDy=0;endArrow=none;endFill=0;strokeColor=#000000;" edge="1" parent="WIyWlLk6GJQsqaUBKTNV-1" source="zu7qVDjdmiL0SXpGUz2i-38" target="zu7qVDjdmiL0SXpGUz2i-41">
          <mxGeometry relative="1" as="geometry" />
        </mxCell>
        <mxCell id="zu7qVDjdmiL0SXpGUz2i-38" value="Person" style="rounded=0;whiteSpace=wrap;html=1;" vertex="1" parent="WIyWlLk6GJQsqaUBKTNV-1">
          <mxGeometry x="1060" y="150" width="120" height="60" as="geometry" />
        </mxCell>
        <mxCell id="zu7qVDjdmiL0SXpGUz2i-48" style="edgeStyle=orthogonalEdgeStyle;rounded=0;orthogonalLoop=1;jettySize=auto;html=1;endArrow=none;endFill=0;strokeColor=#000000;" edge="1" parent="WIyWlLk6GJQsqaUBKTNV-1" source="zu7qVDjdmiL0SXpGUz2i-39" target="zu7qVDjdmiL0SXpGUz2i-38">
          <mxGeometry relative="1" as="geometry" />
        </mxCell>
        <mxCell id="zu7qVDjdmiL0SXpGUz2i-39" value="Person_ID" style="ellipse;whiteSpace=wrap;html=1;" vertex="1" parent="WIyWlLk6GJQsqaUBKTNV-1">
          <mxGeometry x="1070" y="30" width="120" height="80" as="geometry" />
        </mxCell>
        <mxCell id="zu7qVDjdmiL0SXpGUz2i-49" style="edgeStyle=orthogonalEdgeStyle;rounded=0;orthogonalLoop=1;jettySize=auto;html=1;endArrow=none;endFill=0;strokeColor=#000000;" edge="1" parent="WIyWlLk6GJQsqaUBKTNV-1" source="zu7qVDjdmiL0SXpGUz2i-40">
          <mxGeometry relative="1" as="geometry">
            <mxPoint x="1170" y="150" as="targetPoint" />
            <Array as="points">
              <mxPoint x="1260" y="120" />
              <mxPoint x="1170" y="120" />
            </Array>
          </mxGeometry>
        </mxCell>
        <mxCell id="zu7qVDjdmiL0SXpGUz2i-40" value="Name" style="ellipse;whiteSpace=wrap;html=1;" vertex="1" parent="WIyWlLk6GJQsqaUBKTNV-1">
          <mxGeometry x="1200" y="30" width="120" height="80" as="geometry" />
        </mxCell>
        <mxCell id="zu7qVDjdmiL0SXpGUz2i-41" value="Birth_Date" style="ellipse;whiteSpace=wrap;html=1;" vertex="1" parent="WIyWlLk6GJQsqaUBKTNV-1">
          <mxGeometry x="1200" y="140" width="120" height="80" as="geometry" />
        </mxCell>
        <mxCell id="zu7qVDjdmiL0SXpGUz2i-51" style="edgeStyle=orthogonalEdgeStyle;rounded=0;orthogonalLoop=1;jettySize=auto;html=1;entryX=0.75;entryY=1;entryDx=0;entryDy=0;endArrow=none;endFill=0;strokeColor=#000000;" edge="1" parent="WIyWlLk6GJQsqaUBKTNV-1" source="zu7qVDjdmiL0SXpGUz2i-42" target="zu7qVDjdmiL0SXpGUz2i-38">
          <mxGeometry relative="1" as="geometry" />
        </mxCell>
        <mxCell id="zu7qVDjdmiL0SXpGUz2i-42" value="Type" style="ellipse;whiteSpace=wrap;html=1;" vertex="1" parent="WIyWlLk6GJQsqaUBKTNV-1">
          <mxGeometry x="1200" y="240" width="120" height="80" as="geometry" />
        </mxCell>
        <mxCell id="zu7qVDjdmiL0SXpGUz2i-53" style="edgeStyle=orthogonalEdgeStyle;rounded=0;orthogonalLoop=1;jettySize=auto;html=1;entryX=1;entryY=0;entryDx=0;entryDy=0;endArrow=none;endFill=0;strokeColor=#000000;exitX=0;exitY=0.5;exitDx=0;exitDy=0;" edge="1" parent="WIyWlLk6GJQsqaUBKTNV-1" source="zu7qVDjdmiL0SXpGUz2i-43" target="zu7qVDjdmiL0SXpGUz2i-1">
          <mxGeometry relative="1" as="geometry">
            <Array as="points">
              <mxPoint x="884" y="100" />
              <mxPoint x="810" y="100" />
            </Array>
          </mxGeometry>
        </mxCell>
        <mxCell id="zu7qVDjdmiL0SXpGUz2i-56" style="edgeStyle=orthogonalEdgeStyle;rounded=0;orthogonalLoop=1;jettySize=auto;html=1;entryX=0;entryY=0;entryDx=0;entryDy=0;endArrow=none;endFill=0;strokeColor=#000000;" edge="1" parent="WIyWlLk6GJQsqaUBKTNV-1" source="zu7qVDjdmiL0SXpGUz2i-43" target="zu7qVDjdmiL0SXpGUz2i-38">
          <mxGeometry relative="1" as="geometry" />
        </mxCell>
        <mxCell id="zu7qVDjdmiL0SXpGUz2i-43" value="Directed_By" style="rhombus;whiteSpace=wrap;html=1;" vertex="1" parent="WIyWlLk6GJQsqaUBKTNV-1">
          <mxGeometry x="884" y="20" width="80" height="80" as="geometry" />
        </mxCell>
        <mxCell id="zu7qVDjdmiL0SXpGUz2i-57" style="edgeStyle=orthogonalEdgeStyle;rounded=0;orthogonalLoop=1;jettySize=auto;html=1;entryX=0;entryY=0.5;entryDx=0;entryDy=0;endArrow=none;endFill=0;strokeColor=#000000;" edge="1" parent="WIyWlLk6GJQsqaUBKTNV-1" source="zu7qVDjdmiL0SXpGUz2i-44" target="zu7qVDjdmiL0SXpGUz2i-38">
          <mxGeometry relative="1" as="geometry" />
        </mxCell>
        <mxCell id="zu7qVDjdmiL0SXpGUz2i-44" value="Produced_By" style="rhombus;whiteSpace=wrap;html=1;" vertex="1" parent="WIyWlLk6GJQsqaUBKTNV-1">
          <mxGeometry x="884" y="110" width="80" height="80" as="geometry" />
        </mxCell>
        <mxCell id="zu7qVDjdmiL0SXpGUz2i-54" style="edgeStyle=orthogonalEdgeStyle;rounded=0;orthogonalLoop=1;jettySize=auto;html=1;entryX=1.008;entryY=0.633;entryDx=0;entryDy=0;entryPerimeter=0;endArrow=none;endFill=0;strokeColor=#000000;" edge="1" parent="WIyWlLk6GJQsqaUBKTNV-1" source="zu7qVDjdmiL0SXpGUz2i-45" target="zu7qVDjdmiL0SXpGUz2i-1">
          <mxGeometry relative="1" as="geometry" />
        </mxCell>
        <mxCell id="zu7qVDjdmiL0SXpGUz2i-58" style="edgeStyle=orthogonalEdgeStyle;rounded=0;orthogonalLoop=1;jettySize=auto;html=1;entryX=0;entryY=0.75;entryDx=0;entryDy=0;endArrow=none;endFill=0;strokeColor=#000000;" edge="1" parent="WIyWlLk6GJQsqaUBKTNV-1" source="zu7qVDjdmiL0SXpGUz2i-45" target="zu7qVDjdmiL0SXpGUz2i-38">
          <mxGeometry relative="1" as="geometry" />
        </mxCell>
        <mxCell id="zu7qVDjdmiL0SXpGUz2i-45" value="Created_By" style="rhombus;whiteSpace=wrap;html=1;" vertex="1" parent="WIyWlLk6GJQsqaUBKTNV-1">
          <mxGeometry x="884" y="210" width="80" height="80" as="geometry" />
        </mxCell>
        <mxCell id="zu7qVDjdmiL0SXpGUz2i-55" style="edgeStyle=orthogonalEdgeStyle;rounded=0;orthogonalLoop=1;jettySize=auto;html=1;entryX=1;entryY=1;entryDx=0;entryDy=0;endArrow=none;endFill=0;strokeColor=#000000;" edge="1" parent="WIyWlLk6GJQsqaUBKTNV-1" source="zu7qVDjdmiL0SXpGUz2i-46" target="zu7qVDjdmiL0SXpGUz2i-1">
          <mxGeometry relative="1" as="geometry" />
        </mxCell>
        <mxCell id="zu7qVDjdmiL0SXpGUz2i-59" style="edgeStyle=orthogonalEdgeStyle;rounded=0;orthogonalLoop=1;jettySize=auto;html=1;entryX=0;entryY=1;entryDx=0;entryDy=0;endArrow=none;endFill=0;strokeColor=#000000;" edge="1" parent="WIyWlLk6GJQsqaUBKTNV-1" source="zu7qVDjdmiL0SXpGUz2i-46" target="zu7qVDjdmiL0SXpGUz2i-38">
          <mxGeometry relative="1" as="geometry" />
        </mxCell>
        <mxCell id="zu7qVDjdmiL0SXpGUz2i-46" value="Cast" style="rhombus;whiteSpace=wrap;html=1;" vertex="1" parent="WIyWlLk6GJQsqaUBKTNV-1">
          <mxGeometry x="883.5" y="310" width="80" height="80" as="geometry" />
        </mxCell>
        <mxCell id="zu7qVDjdmiL0SXpGUz2i-47" value="" style="ellipse;whiteSpace=wrap;html=1;fillColor=none;" vertex="1" parent="WIyWlLk6GJQsqaUBKTNV-1">
          <mxGeometry x="1205" y="245" width="110" height="70" as="geometry" />
        </mxCell>
        <mxCell id="zu7qVDjdmiL0SXpGUz2i-60" value="" style="ellipse;whiteSpace=wrap;html=1;fillColor=none;" vertex="1" parent="WIyWlLk6GJQsqaUBKTNV-1">
          <mxGeometry x="695" y="25" width="110" height="70" as="geometry" />
        </mxCell>
        <mxCell id="zu7qVDjdmiL0SXpGUz2i-61" value="" style="ellipse;whiteSpace=wrap;html=1;fillColor=none;" vertex="1" parent="WIyWlLk6GJQsqaUBKTNV-1">
          <mxGeometry x="525" y="265" width="110" height="70" as="geometry" />
        </mxCell>
        <mxCell id="zu7qVDjdmiL0SXpGUz2i-62" value="Platform" style="rounded=0;whiteSpace=wrap;html=1;fillColor=none;" vertex="1" parent="WIyWlLk6GJQsqaUBKTNV-1">
          <mxGeometry x="205" y="190" width="120" height="60" as="geometry" />
        </mxCell>
        <mxCell id="zu7qVDjdmiL0SXpGUz2i-158" style="edgeStyle=orthogonalEdgeStyle;rounded=0;jumpStyle=arc;orthogonalLoop=1;jettySize=auto;html=1;startArrow=none;startFill=0;endArrow=none;endFill=0;strokeColor=#000000;" edge="1" parent="WIyWlLk6GJQsqaUBKTNV-1" source="zu7qVDjdmiL0SXpGUz2i-63" target="zu7qVDjdmiL0SXpGUz2i-1">
          <mxGeometry relative="1" as="geometry" />
        </mxCell>
        <mxCell id="zu7qVDjdmiL0SXpGUz2i-159" style="edgeStyle=orthogonalEdgeStyle;rounded=0;jumpStyle=arc;orthogonalLoop=1;jettySize=auto;html=1;exitX=0;exitY=0.5;exitDx=0;exitDy=0;entryX=1;entryY=0.5;entryDx=0;entryDy=0;startArrow=none;startFill=0;endArrow=none;endFill=0;strokeColor=#000000;" edge="1" parent="WIyWlLk6GJQsqaUBKTNV-1" source="zu7qVDjdmiL0SXpGUz2i-63" target="zu7qVDjdmiL0SXpGUz2i-62">
          <mxGeometry relative="1" as="geometry" />
        </mxCell>
        <mxCell id="zu7qVDjdmiL0SXpGUz2i-63" value="available_on" style="rhombus;whiteSpace=wrap;html=1;fillColor=none;" vertex="1" parent="WIyWlLk6GJQsqaUBKTNV-1">
          <mxGeometry x="400" y="180" width="80" height="80" as="geometry" />
        </mxCell>
        <mxCell id="zu7qVDjdmiL0SXpGUz2i-78" style="edgeStyle=orthogonalEdgeStyle;rounded=0;orthogonalLoop=1;jettySize=auto;html=1;entryX=0.833;entryY=-0.033;entryDx=0;entryDy=0;entryPerimeter=0;startArrow=none;startFill=0;endArrow=none;endFill=0;strokeColor=#000000;" edge="1" parent="WIyWlLk6GJQsqaUBKTNV-1" source="zu7qVDjdmiL0SXpGUz2i-66" target="zu7qVDjdmiL0SXpGUz2i-62">
          <mxGeometry relative="1" as="geometry" />
        </mxCell>
        <mxCell id="zu7qVDjdmiL0SXpGUz2i-66" value="Platform_ID" style="ellipse;whiteSpace=wrap;html=1;fillColor=none;" vertex="1" parent="WIyWlLk6GJQsqaUBKTNV-1">
          <mxGeometry x="340" y="55" width="120" height="90" as="geometry" />
        </mxCell>
        <mxCell id="zu7qVDjdmiL0SXpGUz2i-75" style="edgeStyle=orthogonalEdgeStyle;rounded=0;orthogonalLoop=1;jettySize=auto;html=1;exitX=1;exitY=0.5;exitDx=0;exitDy=0;entryX=0;entryY=0.5;entryDx=0;entryDy=0;startArrow=none;startFill=0;endArrow=none;endFill=0;strokeColor=#000000;" edge="1" parent="WIyWlLk6GJQsqaUBKTNV-1" source="zu7qVDjdmiL0SXpGUz2i-67" target="zu7qVDjdmiL0SXpGUz2i-62">
          <mxGeometry relative="1" as="geometry" />
        </mxCell>
        <mxCell id="zu7qVDjdmiL0SXpGUz2i-67" value="Price" style="ellipse;whiteSpace=wrap;html=1;fillColor=none;" vertex="1" parent="WIyWlLk6GJQsqaUBKTNV-1">
          <mxGeometry x="50" y="180" width="120" height="80" as="geometry" />
        </mxCell>
        <mxCell id="zu7qVDjdmiL0SXpGUz2i-76" style="edgeStyle=orthogonalEdgeStyle;rounded=0;orthogonalLoop=1;jettySize=auto;html=1;startArrow=none;startFill=0;endArrow=none;endFill=0;strokeColor=#000000;" edge="1" parent="WIyWlLk6GJQsqaUBKTNV-1" source="zu7qVDjdmiL0SXpGUz2i-68" target="zu7qVDjdmiL0SXpGUz2i-62">
          <mxGeometry relative="1" as="geometry" />
        </mxCell>
        <mxCell id="zu7qVDjdmiL0SXpGUz2i-68" value="Type" style="ellipse;whiteSpace=wrap;html=1;fillColor=none;" vertex="1" parent="WIyWlLk6GJQsqaUBKTNV-1">
          <mxGeometry x="60" y="300" width="100" height="80" as="geometry" />
        </mxCell>
        <mxCell id="zu7qVDjdmiL0SXpGUz2i-77" style="edgeStyle=orthogonalEdgeStyle;rounded=0;orthogonalLoop=1;jettySize=auto;html=1;entryX=0.75;entryY=1;entryDx=0;entryDy=0;startArrow=none;startFill=0;endArrow=none;endFill=0;strokeColor=#000000;" edge="1" parent="WIyWlLk6GJQsqaUBKTNV-1" source="zu7qVDjdmiL0SXpGUz2i-70" target="zu7qVDjdmiL0SXpGUz2i-62">
          <mxGeometry relative="1" as="geometry" />
        </mxCell>
        <mxCell id="zu7qVDjdmiL0SXpGUz2i-70" value="Accessiblity" style="ellipse;whiteSpace=wrap;html=1;fillColor=none;" vertex="1" parent="WIyWlLk6GJQsqaUBKTNV-1">
          <mxGeometry x="290" y="300" width="110" height="80" as="geometry" />
        </mxCell>
        <mxCell id="zu7qVDjdmiL0SXpGUz2i-74" style="edgeStyle=orthogonalEdgeStyle;rounded=0;orthogonalLoop=1;jettySize=auto;html=1;entryX=0.125;entryY=-0.05;entryDx=0;entryDy=0;entryPerimeter=0;startArrow=none;startFill=0;endArrow=none;endFill=0;strokeColor=#000000;" edge="1" parent="WIyWlLk6GJQsqaUBKTNV-1" source="zu7qVDjdmiL0SXpGUz2i-71" target="zu7qVDjdmiL0SXpGUz2i-62">
          <mxGeometry relative="1" as="geometry" />
        </mxCell>
        <mxCell id="zu7qVDjdmiL0SXpGUz2i-71" value="Name" style="ellipse;whiteSpace=wrap;html=1;fillColor=none;" vertex="1" parent="WIyWlLk6GJQsqaUBKTNV-1">
          <mxGeometry x="50" y="60" width="120" height="80" as="geometry" />
        </mxCell>
        <mxCell id="zu7qVDjdmiL0SXpGUz2i-72" value="Movie_ID" style="ellipse;whiteSpace=wrap;html=1;fillColor=none;" vertex="1" parent="WIyWlLk6GJQsqaUBKTNV-1">
          <mxGeometry x="525" y="370" width="120" height="80" as="geometry" />
        </mxCell>
        <mxCell id="zu7qVDjdmiL0SXpGUz2i-73" style="edgeStyle=orthogonalEdgeStyle;rounded=0;orthogonalLoop=1;jettySize=auto;html=1;startArrow=none;startFill=0;endArrow=none;endFill=0;strokeColor=#000000;exitX=0.25;exitY=1;exitDx=0;exitDy=0;" edge="1" parent="WIyWlLk6GJQsqaUBKTNV-1" source="zu7qVDjdmiL0SXpGUz2i-1" target="zu7qVDjdmiL0SXpGUz2i-72">
          <mxGeometry relative="1" as="geometry">
            <mxPoint x="720" y="310" as="sourcePoint" />
            <Array as="points">
              <mxPoint x="720" y="410" />
            </Array>
          </mxGeometry>
        </mxCell>
        <mxCell id="zu7qVDjdmiL0SXpGUz2i-146" style="edgeStyle=orthogonalEdgeStyle;rounded=0;jumpStyle=arc;orthogonalLoop=1;jettySize=auto;html=1;startArrow=block;startFill=1;endArrow=none;endFill=0;strokeColor=#000000;" edge="1" parent="WIyWlLk6GJQsqaUBKTNV-1" source="zu7qVDjdmiL0SXpGUz2i-79" target="zu7qVDjdmiL0SXpGUz2i-125">
          <mxGeometry relative="1" as="geometry" />
        </mxCell>
        <mxCell id="zu7qVDjdmiL0SXpGUz2i-79" value="Blog" style="rounded=0;whiteSpace=wrap;html=1;fillColor=none;" vertex="1" parent="WIyWlLk6GJQsqaUBKTNV-1">
          <mxGeometry x="1195" y="420" width="120" height="70" as="geometry" />
        </mxCell>
        <mxCell id="zu7qVDjdmiL0SXpGUz2i-81" value="" style="endArrow=none;html=1;strokeColor=#000000;" edge="1" parent="WIyWlLk6GJQsqaUBKTNV-1" target="zu7qVDjdmiL0SXpGUz2i-82">
          <mxGeometry width="50" height="50" relative="1" as="geometry">
            <mxPoint x="800" y="480" as="sourcePoint" />
            <mxPoint x="900" y="480" as="targetPoint" />
          </mxGeometry>
        </mxCell>
        <mxCell id="zu7qVDjdmiL0SXpGUz2i-83" style="edgeStyle=orthogonalEdgeStyle;rounded=0;orthogonalLoop=1;jettySize=auto;html=1;exitX=1;exitY=0.5;exitDx=0;exitDy=0;startArrow=none;startFill=0;endArrow=block;endFill=1;strokeColor=#000000;" edge="1" parent="WIyWlLk6GJQsqaUBKTNV-1" source="zu7qVDjdmiL0SXpGUz2i-82" target="zu7qVDjdmiL0SXpGUz2i-79">
          <mxGeometry relative="1" as="geometry" />
        </mxCell>
        <mxCell id="zu7qVDjdmiL0SXpGUz2i-82" value="Criticised_Here" style="rhombus;whiteSpace=wrap;html=1;" vertex="1" parent="WIyWlLk6GJQsqaUBKTNV-1">
          <mxGeometry x="900" y="440" width="120" height="80" as="geometry" />
        </mxCell>
        <mxCell id="zu7qVDjdmiL0SXpGUz2i-140" style="edgeStyle=orthogonalEdgeStyle;rounded=0;jumpStyle=arc;orthogonalLoop=1;jettySize=auto;html=1;entryX=1;entryY=0;entryDx=0;entryDy=0;startArrow=none;startFill=0;endArrow=none;endFill=0;strokeColor=#000000;" edge="1" parent="WIyWlLk6GJQsqaUBKTNV-1" source="zu7qVDjdmiL0SXpGUz2i-110" target="zu7qVDjdmiL0SXpGUz2i-112">
          <mxGeometry relative="1" as="geometry">
            <Array as="points">
              <mxPoint x="1150" y="790" />
            </Array>
          </mxGeometry>
        </mxCell>
        <mxCell id="zu7qVDjdmiL0SXpGUz2i-141" style="edgeStyle=orthogonalEdgeStyle;rounded=0;jumpStyle=arc;orthogonalLoop=1;jettySize=auto;html=1;entryX=0.5;entryY=0;entryDx=0;entryDy=0;startArrow=none;startFill=0;endArrow=none;endFill=0;strokeColor=#000000;" edge="1" parent="WIyWlLk6GJQsqaUBKTNV-1" source="zu7qVDjdmiL0SXpGUz2i-110">
          <mxGeometry relative="1" as="geometry">
            <mxPoint x="1224" y="870" as="targetPoint" />
          </mxGeometry>
        </mxCell>
        <mxCell id="zu7qVDjdmiL0SXpGUz2i-143" style="edgeStyle=orthogonalEdgeStyle;rounded=0;jumpStyle=arc;orthogonalLoop=1;jettySize=auto;html=1;entryX=0;entryY=0;entryDx=0;entryDy=0;startArrow=none;startFill=0;endArrow=none;endFill=0;strokeColor=#000000;" edge="1" parent="WIyWlLk6GJQsqaUBKTNV-1" source="zu7qVDjdmiL0SXpGUz2i-110" target="zu7qVDjdmiL0SXpGUz2i-113">
          <mxGeometry relative="1" as="geometry">
            <Array as="points">
              <mxPoint x="1304" y="800" />
              <mxPoint x="1425" y="800" />
            </Array>
          </mxGeometry>
        </mxCell>
        <mxCell id="zu7qVDjdmiL0SXpGUz2i-180" style="edgeStyle=orthogonalEdgeStyle;rounded=0;jumpStyle=arc;orthogonalLoop=1;jettySize=auto;html=1;startArrow=none;startFill=0;endArrow=none;endFill=0;strokeColor=#000000;" edge="1" parent="WIyWlLk6GJQsqaUBKTNV-1" source="zu7qVDjdmiL0SXpGUz2i-110" target="zu7qVDjdmiL0SXpGUz2i-114">
          <mxGeometry relative="1" as="geometry">
            <Array as="points">
              <mxPoint x="1270" y="825" />
              <mxPoint x="1340" y="825" />
            </Array>
          </mxGeometry>
        </mxCell>
        <mxCell id="zu7qVDjdmiL0SXpGUz2i-110" value="Members" style="rounded=0;whiteSpace=wrap;html=1;fillColor=none;" vertex="1" parent="WIyWlLk6GJQsqaUBKTNV-1">
          <mxGeometry x="1195" y="730" width="120" height="60" as="geometry" />
        </mxCell>
        <mxCell id="zu7qVDjdmiL0SXpGUz2i-111" value="User_name" style="ellipse;whiteSpace=wrap;html=1;fillColor=none;" vertex="1" parent="WIyWlLk6GJQsqaUBKTNV-1">
          <mxGeometry x="1170" y="870" width="100" height="80" as="geometry" />
        </mxCell>
        <mxCell id="zu7qVDjdmiL0SXpGUz2i-112" value="Register_date" style="ellipse;whiteSpace=wrap;html=1;fillColor=none;" vertex="1" parent="WIyWlLk6GJQsqaUBKTNV-1">
          <mxGeometry x="1069" y="820" width="95" height="80" as="geometry" />
        </mxCell>
        <mxCell id="zu7qVDjdmiL0SXpGUz2i-113" value="birth_date" style="ellipse;whiteSpace=wrap;html=1;fillColor=none;" vertex="1" parent="WIyWlLk6GJQsqaUBKTNV-1">
          <mxGeometry x="1411" y="820" width="95" height="80" as="geometry" />
        </mxCell>
        <mxCell id="zu7qVDjdmiL0SXpGUz2i-114" value="member_ID" style="ellipse;whiteSpace=wrap;html=1;fillColor=none;" vertex="1" parent="WIyWlLk6GJQsqaUBKTNV-1">
          <mxGeometry x="1290" y="860" width="100" height="80" as="geometry" />
        </mxCell>
        <mxCell id="zu7qVDjdmiL0SXpGUz2i-153" style="edgeStyle=orthogonalEdgeStyle;rounded=0;jumpStyle=arc;orthogonalLoop=1;jettySize=auto;html=1;exitX=0;exitY=1;exitDx=0;exitDy=0;entryX=1;entryY=0.614;entryDx=0;entryDy=0;entryPerimeter=0;startArrow=none;startFill=0;endArrow=none;endFill=0;strokeColor=#000000;" edge="1" parent="WIyWlLk6GJQsqaUBKTNV-1" source="zu7qVDjdmiL0SXpGUz2i-125" target="zu7qVDjdmiL0SXpGUz2i-151">
          <mxGeometry relative="1" as="geometry" />
        </mxCell>
        <mxCell id="zu7qVDjdmiL0SXpGUz2i-179" style="edgeStyle=orthogonalEdgeStyle;rounded=0;jumpStyle=arc;orthogonalLoop=1;jettySize=auto;html=1;exitX=0.5;exitY=1;exitDx=0;exitDy=0;entryX=0.5;entryY=0;entryDx=0;entryDy=0;startArrow=none;startFill=0;endArrow=none;endFill=0;strokeColor=#000000;" edge="1" parent="WIyWlLk6GJQsqaUBKTNV-1" source="zu7qVDjdmiL0SXpGUz2i-125" target="zu7qVDjdmiL0SXpGUz2i-110">
          <mxGeometry relative="1" as="geometry" />
        </mxCell>
        <mxCell id="zu7qVDjdmiL0SXpGUz2i-125" value="sent_by" style="rhombus;whiteSpace=wrap;html=1;fillColor=none;" vertex="1" parent="WIyWlLk6GJQsqaUBKTNV-1">
          <mxGeometry x="1195" y="560" width="120" height="110" as="geometry" />
        </mxCell>
        <mxCell id="zu7qVDjdmiL0SXpGUz2i-150" style="edgeStyle=orthogonalEdgeStyle;rounded=0;jumpStyle=arc;orthogonalLoop=1;jettySize=auto;html=1;startArrow=none;startFill=0;endArrow=none;endFill=0;strokeColor=#000000;" edge="1" parent="WIyWlLk6GJQsqaUBKTNV-1" source="zu7qVDjdmiL0SXpGUz2i-148" target="zu7qVDjdmiL0SXpGUz2i-125">
          <mxGeometry relative="1" as="geometry" />
        </mxCell>
        <mxCell id="zu7qVDjdmiL0SXpGUz2i-148" value="comment" style="ellipse;whiteSpace=wrap;html=1;fillColor=none;" vertex="1" parent="WIyWlLk6GJQsqaUBKTNV-1">
          <mxGeometry x="1055" y="580" width="100" height="70" as="geometry" />
        </mxCell>
        <mxCell id="zu7qVDjdmiL0SXpGUz2i-151" value="favorite" style="ellipse;whiteSpace=wrap;html=1;fillColor=none;" vertex="1" parent="WIyWlLk6GJQsqaUBKTNV-1">
          <mxGeometry x="1054" y="660" width="101" height="70" as="geometry" />
        </mxCell>
        <mxCell id="zu7qVDjdmiL0SXpGUz2i-154" style="edgeStyle=orthogonalEdgeStyle;rounded=0;jumpStyle=arc;orthogonalLoop=1;jettySize=auto;html=1;exitX=1;exitY=0.5;exitDx=0;exitDy=0;entryX=0;entryY=0;entryDx=0;entryDy=0;startArrow=none;startFill=0;endArrow=none;endFill=0;strokeColor=#000000;" edge="1" parent="WIyWlLk6GJQsqaUBKTNV-1" source="zu7qVDjdmiL0SXpGUz2i-152" target="zu7qVDjdmiL0SXpGUz2i-125">
          <mxGeometry relative="1" as="geometry" />
        </mxCell>
        <mxCell id="zu7qVDjdmiL0SXpGUz2i-152" value="rate" style="ellipse;whiteSpace=wrap;html=1;fillColor=none;" vertex="1" parent="WIyWlLk6GJQsqaUBKTNV-1">
          <mxGeometry x="1055" y="490" width="100" height="70" as="geometry" />
        </mxCell>
        <mxCell id="zu7qVDjdmiL0SXpGUz2i-174" style="edgeStyle=orthogonalEdgeStyle;rounded=0;jumpStyle=arc;orthogonalLoop=1;jettySize=auto;html=1;startArrow=none;startFill=0;endArrow=none;endFill=0;strokeColor=#000000;" edge="1" parent="WIyWlLk6GJQsqaUBKTNV-1" source="zu7qVDjdmiL0SXpGUz2i-161" target="zu7qVDjdmiL0SXpGUz2i-164">
          <mxGeometry relative="1" as="geometry" />
        </mxCell>
        <mxCell id="zu7qVDjdmiL0SXpGUz2i-161" value="Soundtrack" style="rounded=0;whiteSpace=wrap;html=1;fillColor=none;" vertex="1" parent="WIyWlLk6GJQsqaUBKTNV-1">
          <mxGeometry x="185" y="520" width="120" height="60" as="geometry" />
        </mxCell>
        <mxCell id="zu7qVDjdmiL0SXpGUz2i-177" style="edgeStyle=orthogonalEdgeStyle;rounded=0;jumpStyle=arc;orthogonalLoop=1;jettySize=auto;html=1;startArrow=none;startFill=0;endArrow=none;endFill=0;strokeColor=#000000;" edge="1" parent="WIyWlLk6GJQsqaUBKTNV-1" source="zu7qVDjdmiL0SXpGUz2i-162" target="zu7qVDjdmiL0SXpGUz2i-161">
          <mxGeometry relative="1" as="geometry" />
        </mxCell>
        <mxCell id="zu7qVDjdmiL0SXpGUz2i-162" value="OST_ID" style="ellipse;whiteSpace=wrap;html=1;fillColor=none;" vertex="1" parent="WIyWlLk6GJQsqaUBKTNV-1">
          <mxGeometry x="185" y="390" width="120" height="80" as="geometry" />
        </mxCell>
        <mxCell id="zu7qVDjdmiL0SXpGUz2i-176" style="edgeStyle=orthogonalEdgeStyle;rounded=0;jumpStyle=arc;orthogonalLoop=1;jettySize=auto;html=1;entryX=0.323;entryY=1.044;entryDx=0;entryDy=0;entryPerimeter=0;startArrow=none;startFill=0;endArrow=none;endFill=0;strokeColor=#000000;" edge="1" parent="WIyWlLk6GJQsqaUBKTNV-1" source="zu7qVDjdmiL0SXpGUz2i-163" target="zu7qVDjdmiL0SXpGUz2i-161">
          <mxGeometry relative="1" as="geometry" />
        </mxCell>
        <mxCell id="zu7qVDjdmiL0SXpGUz2i-163" value="Performers" style="ellipse;whiteSpace=wrap;html=1;fillColor=none;" vertex="1" parent="WIyWlLk6GJQsqaUBKTNV-1">
          <mxGeometry x="105" y="610" width="120" height="80" as="geometry" />
        </mxCell>
        <mxCell id="zu7qVDjdmiL0SXpGUz2i-164" value="Name" style="ellipse;whiteSpace=wrap;html=1;fillColor=none;" vertex="1" parent="WIyWlLk6GJQsqaUBKTNV-1">
          <mxGeometry x="25" y="510" width="120" height="80" as="geometry" />
        </mxCell>
        <mxCell id="zu7qVDjdmiL0SXpGUz2i-173" style="edgeStyle=orthogonalEdgeStyle;rounded=0;jumpStyle=arc;orthogonalLoop=1;jettySize=auto;html=1;exitX=0.5;exitY=0;exitDx=0;exitDy=0;entryX=0.5;entryY=1;entryDx=0;entryDy=0;startArrow=none;startFill=0;endArrow=none;endFill=0;strokeColor=#000000;" edge="1" parent="WIyWlLk6GJQsqaUBKTNV-1" source="zu7qVDjdmiL0SXpGUz2i-165" target="zu7qVDjdmiL0SXpGUz2i-161">
          <mxGeometry relative="1" as="geometry" />
        </mxCell>
        <mxCell id="zu7qVDjdmiL0SXpGUz2i-165" value="Composer_Name" style="ellipse;whiteSpace=wrap;html=1;fillColor=none;" vertex="1" parent="WIyWlLk6GJQsqaUBKTNV-1">
          <mxGeometry x="255" y="610" width="115" height="80" as="geometry" />
        </mxCell>
        <mxCell id="zu7qVDjdmiL0SXpGUz2i-171" style="edgeStyle=orthogonalEdgeStyle;rounded=0;jumpStyle=arc;orthogonalLoop=1;jettySize=auto;html=1;entryX=0.573;entryY=1.054;entryDx=0;entryDy=0;entryPerimeter=0;startArrow=none;startFill=0;endArrow=block;endFill=1;strokeColor=#000000;" edge="1" parent="WIyWlLk6GJQsqaUBKTNV-1" source="zu7qVDjdmiL0SXpGUz2i-169" target="zu7qVDjdmiL0SXpGUz2i-1">
          <mxGeometry relative="1" as="geometry" />
        </mxCell>
        <mxCell id="zu7qVDjdmiL0SXpGUz2i-172" style="edgeStyle=orthogonalEdgeStyle;rounded=0;jumpStyle=arc;orthogonalLoop=1;jettySize=auto;html=1;exitX=0;exitY=0.5;exitDx=0;exitDy=0;startArrow=none;startFill=0;endArrow=none;endFill=0;strokeColor=#000000;" edge="1" parent="WIyWlLk6GJQsqaUBKTNV-1" source="zu7qVDjdmiL0SXpGUz2i-169" target="zu7qVDjdmiL0SXpGUz2i-161">
          <mxGeometry relative="1" as="geometry" />
        </mxCell>
        <mxCell id="zu7qVDjdmiL0SXpGUz2i-169" value="OST" style="rhombus;whiteSpace=wrap;html=1;fillColor=none;" vertex="1" parent="WIyWlLk6GJQsqaUBKTNV-1">
          <mxGeometry x="385" y="495" width="120" height="110" as="geometry" />
        </mxCell>
      </root>
    </mxGraphModel>
  </diagram>
</mxfile>
